<svg width="59" height="26" viewBox="0 0 59 26" fill="none" xmlns="http://www.w3.org/2000/svg">
<path d="M15.6438 23.6504H13.1688L11.0018 20.1854V23.6504H8.91176V20.1854L6.74476 23.6504H4.26976L6.93176 19.6794L4.52276 15.9504H6.96476L8.91176 19.2504V15.9504H11.0018V19.2504L12.9488 15.9504H15.3908L12.9818 19.6794L15.6438 23.6504ZM20.5351 15.9504H22.8231L20.6891 21.1204C20.3005 22.0591 19.8495 22.7227 19.3361 23.1114C18.8301 23.5001 18.1518 23.6944 17.3011 23.6944H16.6191V21.7584H17.1691C17.3598 21.7584 17.5248 21.7437 17.6641 21.7144C17.8035 21.6851 17.9245 21.6374 18.0271 21.5714C18.1371 21.4981 18.2325 21.4027 18.3131 21.2854L15.5191 15.9504H17.9501L19.4131 19.1294L20.5351 15.9504ZM26.8283 15.9504C27.6497 15.9504 28.328 16.2144 28.8633 16.7424C29.406 17.2631 29.6773 17.9267 29.6773 18.7334C29.6773 19.5401 29.406 20.2074 28.8633 20.7354C28.3207 21.2634 27.6423 21.5274 26.8283 21.5274H25.6733V23.6504H23.5503V15.9504H26.8283ZM26.5753 19.6684C26.8467 19.6684 27.0667 19.5841 27.2353 19.4154C27.4113 19.2394 27.4993 19.0121 27.4993 18.7334C27.4993 18.5574 27.459 18.3997 27.3783 18.2604C27.305 18.1137 27.1987 18.0001 27.0593 17.9194C26.92 17.8387 26.7587 17.7984 26.5753 17.7984H25.6733V19.6684H26.5753ZM35.0842 15.9504H37.2292V23.6504H35.0842V20.6914H32.7742V23.6504H30.6402V15.9504H32.7742V18.7334H35.0842V15.9504ZM43.8333 23.6504L43.4043 22.3964H40.6763L40.2473 23.6504H37.9813L41.0063 15.9504H43.0743L46.1653 23.6504H43.8333ZM42.8873 20.7354L42.0403 18.3484L41.1933 20.7354H42.8873ZM48.3889 15.9504H53.8669V23.6504H51.7439V17.8864H50.2589L49.9619 20.5594C49.7272 22.6347 48.7482 23.6724 47.0249 23.6724H46.4089V21.7254H46.7719C46.9039 21.7254 47.0212 21.7107 47.1239 21.6814C47.2339 21.6521 47.3292 21.6044 47.4099 21.5384C47.4905 21.4724 47.5602 21.3917 47.6189 21.2964C47.6775 21.1937 47.7252 21.0764 47.7619 20.9444C47.8059 20.8124 47.8389 20.6584 47.8609 20.4824L48.3889 15.9504Z" fill="white"/>
<path d="M5.47495 11.3047H52.2859C52.3614 11.3047 52.3992 11.3383 52.3992 11.4056V11.6745C52.3992 11.7418 52.3614 11.7754 52.2859 11.7754H5.47495C5.39945 11.7754 5.36169 11.7418 5.36169 11.6745V11.4056C5.36169 11.3383 5.4372 11.3047 5.47495 11.3047Z" fill="#E5C965"/>
<path d="M5.85248 1.04102H9.06129V7.87109H6.985V2.58872H5.85248V1.04102Z" fill="white"/>
<path d="M10.4581 5.88672V4.13867H14.6862V5.88672H10.4581Z" fill="white"/>
<path d="M23.2933 2.15234C23.9728 2.15234 24.5013 2.35427 24.9166 2.75811C25.3319 3.16196 25.5206 3.70042 25.5206 4.3735V7.83984H23.3688V4.60907C23.3688 4.03696 23.1423 3.76773 22.6893 3.76773C22.0853 3.76773 21.7833 4.10427 21.7833 4.811V7.83984H19.707V4.60907C19.707 4.03696 19.4805 3.76773 19.0275 3.76773C18.7255 3.76773 18.499 3.86869 18.348 4.03696C18.197 4.20523 18.1215 4.47446 18.1215 4.811V7.83984H15.9697V2.32061H17.4797L17.7817 2.92638C18.2725 2.42157 18.8765 2.15234 19.5937 2.15234C19.9335 2.15234 20.311 2.21965 20.613 2.35427C20.915 2.48888 21.1793 2.69081 21.368 2.96004C21.519 2.79177 21.7078 2.65715 21.8965 2.52254C22.0853 2.38792 22.3118 2.28696 22.5383 2.25331C22.8026 2.186 23.0668 2.15234 23.2933 2.15234Z" fill="white"/>
<path d="M26.8041 7.87109V2.32096H28.9559V7.87109H26.8041ZM26.8419 1.61458V0H28.9559V1.61458H26.8419Z" fill="white"/>
<path d="M34.0523 2.15234C34.7695 2.15234 35.3358 2.35427 35.7888 2.79177C36.2041 3.22927 36.4306 3.76773 36.4306 4.47446V7.83984H34.2788V4.71004C34.2788 4.07061 34.0145 3.73407 33.486 3.73407C33.2972 3.73407 33.0707 3.76773 32.9197 3.86869C32.7687 3.96965 32.6177 4.10427 32.58 4.23888C32.5045 4.44081 32.4667 4.64273 32.4667 4.84465V7.80619H30.3149V2.32061H31.825L32.127 2.89273C32.58 2.38792 33.2595 2.15234 34.0523 2.15234Z" fill="white"/>
<path d="M37.6386 7.87109V6.0918H39.7149V7.87109H37.6386Z" fill="white"/>
<path d="M44.4715 2.28711H45.0378V4.03631H44.2073C43.8297 4.03631 43.5655 4.10359 43.3767 4.27178C43.2257 4.43997 43.1125 4.67544 43.1125 5.04546V7.87109H40.9607V2.32075H42.3952L42.735 2.92624C43.188 2.48894 43.7542 2.28711 44.4715 2.28711Z" fill="white"/>
<path d="M48.8506 8.03906C47.9446 8.03906 47.1896 7.80366 46.6233 7.33287C46.057 6.86207 45.7928 6.25677 45.7928 5.48332V2.32227H47.9446V5.41606C47.9446 5.71872 48.0201 5.95411 48.1711 6.08863C48.3221 6.25677 48.5486 6.32402 48.8506 6.32402C49.1526 6.32402 49.3791 6.25677 49.5301 6.08863C49.6811 5.92048 49.7944 5.68509 49.7944 5.41606V2.32227H51.9462V5.48332C51.9462 5.98774 51.8329 6.45853 51.5687 6.82845C51.3044 7.19836 50.9269 7.53464 50.4739 7.73641C49.9831 7.93818 49.4546 8.03906 48.8506 8.03906Z" fill="white"/>
</svg>
