<svg width="77" height="47" viewBox="0 0 77 47" fill="none" xmlns="http://www.w3.org/2000/svg">
<path d="M0 7C0 3.13401 3.13401 0 7 0H70C73.866 0 77 3.13401 77 7V40C77 43.866 73.866 47 70 47H7C3.134 47 0 43.866 0 40V7Z" fill="#5B529F"/>
<path d="M20.8783 40H17.7283L14.9703 35.59V40H12.3103V35.59L9.55232 40H6.40232L9.79032 34.946L6.72432 30.2H9.83232L12.3103 34.4V30.2H14.9703V34.4L17.4483 30.2H20.5563L17.4903 34.946L20.8783 40ZM27.1037 30.2H30.0157L27.2997 36.78C26.8051 37.9747 26.2311 38.8193 25.5777 39.314C24.9337 39.8087 24.0704 40.056 22.9877 40.056H22.1197V37.592H22.8197C23.0624 37.592 23.2724 37.5733 23.4497 37.536C23.6271 37.4987 23.7811 37.438 23.9117 37.354C24.0517 37.2607 24.1731 37.1393 24.2757 36.99L20.7197 30.2H23.8137L25.6757 34.246L27.1037 30.2ZM35.1133 30.2C36.1586 30.2 37.0219 30.536 37.7033 31.208C38.3939 31.8707 38.7393 32.7153 38.7393 33.742C38.7393 34.7687 38.3939 35.618 37.7033 36.29C37.0126 36.962 36.1493 37.298 35.1133 37.298H33.6433V40H30.9413V30.2H35.1133ZM34.7913 34.932C35.1366 34.932 35.4166 34.8247 35.6313 34.61C35.8553 34.386 35.9673 34.0967 35.9673 33.742C35.9673 33.518 35.9159 33.3173 35.8133 33.14C35.7199 32.9533 35.5846 32.8087 35.4073 32.706C35.2299 32.6033 35.0246 32.552 34.7913 32.552H33.6433V34.932H34.7913ZM45.6207 30.2H48.3507V40H45.6207V36.234H42.6807V40H39.9647V30.2H42.6807V33.742H45.6207V30.2ZM56.7559 40L56.2099 38.404H52.7379L52.1919 40H49.3079L53.1579 30.2H55.7899L59.7239 40H56.7559ZM55.5519 36.29L54.4739 33.252L53.3959 36.29H55.5519ZM62.5539 30.2H69.5259V40H66.8239V32.664H64.9339L64.5559 36.066C64.2572 38.7073 63.0112 40.028 60.8179 40.028H60.0339V37.55H60.4959C60.6639 37.55 60.8132 37.5313 60.9439 37.494C61.0839 37.4567 61.2052 37.396 61.3079 37.312C61.4106 37.228 61.4992 37.1253 61.5739 37.004C61.6486 36.8733 61.7092 36.724 61.7559 36.556C61.8119 36.388 61.8539 36.192 61.8819 35.968L62.5539 30.2Z" fill="white"/>
<path d="M7.14786 23.5602H68.2622C68.3607 23.5602 68.41 23.6095 68.41 23.708V24.1023C68.41 24.2009 68.3607 24.2502 68.2622 24.2502H7.14786C7.04929 24.2502 7 24.2009 7 24.1023V23.708C7 23.6095 7.09857 23.5602 7.14786 23.5602Z" fill="#E5C965"/>
<path d="M7.64075 8.52771H11.83V18.5327H9.11932V10.7949H7.64075V8.52771Z" fill="white"/>
<path d="M13.6536 15.625V13.0621H19.1736V15.625H13.6536Z" fill="white"/>
<path d="M30.4107 10.1542C31.2979 10.1542 31.9879 10.4499 32.53 11.0413C33.0722 11.6327 33.3186 12.4213 33.3186 13.407V18.4834H30.5093V13.752C30.5093 12.9142 30.2136 12.5199 29.6222 12.5199C28.8336 12.5199 28.4393 13.0127 28.4393 14.0477V18.4834H25.7286V13.752C25.7286 12.9142 25.4329 12.5199 24.8415 12.5199C24.4472 12.5199 24.1514 12.6677 23.9543 12.9142C23.7572 13.1606 23.6586 13.5549 23.6586 14.0477V18.4834H20.8493V10.4006H22.8207L23.215 11.2877C23.8557 10.5485 24.6443 10.1542 25.5807 10.1542C26.0243 10.1542 26.5172 10.2527 26.9115 10.4499C27.3057 10.647 27.6507 10.9427 27.8972 11.337C28.0943 11.0906 28.3407 10.8935 28.5872 10.6963C28.8336 10.4992 29.1293 10.3513 29.425 10.302C29.77 10.2035 30.115 10.1542 30.4107 10.1542Z" fill="white"/>
<path d="M34.9943 18.5329V10.4007H37.8036V18.5329H34.9943ZM35.0436 9.36571V7H37.8036V9.36571H35.0436Z" fill="white"/>
<path d="M44.4572 10.1542C45.3936 10.1542 46.1329 10.4499 46.7243 11.0906C47.2665 11.7313 47.5622 12.5199 47.5622 13.5549V18.4834H44.7529V13.8999C44.7529 12.9635 44.4079 12.4706 43.7179 12.4706C43.4715 12.4706 43.1757 12.5199 42.9786 12.6677C42.7815 12.8156 42.5843 13.0127 42.535 13.2099C42.4365 13.5056 42.3872 13.8013 42.3872 14.097V18.4342H39.5779V10.4006H41.5493L41.9436 11.2385C42.535 10.4992 43.4222 10.1542 44.4572 10.1542Z" fill="white"/>
<path d="M49.1393 18.5329V15.9208H51.85V18.5329H49.1393Z" fill="white"/>
<path d="M58.06 10.3516H58.7993V12.9144H57.715C57.2222 12.9144 56.8772 13.013 56.6307 13.2594C56.4336 13.5058 56.2857 13.8508 56.2857 14.393V18.533H53.4764V10.4008H55.3493L55.7929 11.288C56.3843 10.6473 57.1236 10.3516 58.06 10.3516Z" fill="white"/>
<path d="M63.7772 18.7792C62.5943 18.7792 61.6086 18.4342 60.8693 17.7442C60.13 17.0542 59.785 16.1671 59.785 15.0335V10.4006H62.5943V14.9349C62.5943 15.3785 62.6929 15.7235 62.89 15.9206C63.0872 16.1671 63.3829 16.2656 63.7772 16.2656C64.1715 16.2656 64.4672 16.1671 64.6643 15.9206C64.8615 15.6742 65.0093 15.3292 65.0093 14.9349V10.4006H67.8186V15.0335C67.8186 15.7728 67.6708 16.4628 67.3258 17.0049C66.9808 17.5471 66.4879 18.0399 65.8965 18.3356C65.2557 18.6314 64.5657 18.7792 63.7772 18.7792Z" fill="white"/>
</svg>
